<svg xmlns="http://www.w3.org/2000/svg" viewBox="0 0 653.34 376.69" fill="#555555"><defs><style>.cls-1{fill:#65ffce;}</style></defs><g id="Layer_2" data-name="Layer 2"><g id="Layer_1-2" data-name="Layer 1"><path d="M602.71,120.43c-33-9.36-67.26,1.31-98.24,13.18-42.1,16.13-136.52,69.67-177.7,91q-20.64,10.57-41.71,20.3c-21.1-12.77-42.67-24.64-65.26-34.39-1.61-.7-3.73-1.59-6.19-2.57,54.83-11,137.17-36.76,153-96.15,11.65-44.89-20.71-92.18-61.27-107-38-14-85.22,3.61-105.31,39.78-12.61,23-10,55.63,9.84,73.49,10.82,10,25.61,13.63,39.91,12.78a47.28,47.28,0,0,0,21-6.33c12.24-6.51,24-21.17,16.95-35.84-4.11-8.22-12.33-13.34-20.7-15.6a6.81,6.81,0,0,0-7.92,1.75c-2.43,3-1.74,7.71,1.54,10.55s7.92,2.72,10.35-.26A7.13,7.13,0,0,0,271.9,78c6.05,4.68,11.39,10.76,11.65,18.64-.17,10-8.15,17.1-15.75,23-10.94,8.66-25.6,12.28-39,8.24A37.9,37.9,0,0,1,208,112.45c-6.75-10.12-9-22.72-9.14-34.82-.75-43.73,45.56-73.23,84.54-70.8,27.49,1.58,52.4,19.31,66.77,43.05,20.05,32.63,15.3,68.14-12.7,93.81-25.74,23.54-59.31,37.32-91.63,48.44-13.7,4.6-27.59,8.65-41.62,12.29-15.39-5.47-35.62-10.81-42.64-4.25l.9.65c2.27-1.71,5.44-1.64,8.22-1.59,9,.65,17.66,3.74,26.12,6.91l.24.1q-16.35,4.06-32.87,7.49l.14,1.12a401.31,401.31,0,0,0,40.83-5.3c5.65,2.42,11.27,5,16.71,7.7,19.16,9.51,37.91,19.89,56.44,30.69-29,13-58.62,24.38-89.06,33.1-27.56,7.74-56,13.5-84.64,13.86-132,1.7-109.08-124.55-19.75-113.59a112.3,112.3,0,0,1,23.31,5.79c10.33,3.71,20,8.87,30.7,11.61l.56-1a58.37,58.37,0,0,0-13.42-10.6c-7.38-4.29-15.47-7.17-23.59-9.59-2.45-.81-5.67-1.46-8.27-2.07a104.37,104.37,0,0,0-14.82-2c-95.21-5.16-113.9,133.71,29.56,128.14,33.36-1.28,66.16-9.23,97.88-19.56,24-7.41,50.17-18.3,77-30.88Q297,258.9,310,266.86c24.86,15.66,49.27,32.33,75.29,45.84-2.76,6.29-3.36,14.12-.84,23.78a67.2,67.2,0,0,0,19.88,31.69c9.58,8.79,24.39,14,30.35-.94a5.22,5.22,0,0,0,.63-2.45c0-3.9-4.48-7.06-10-7.06s-10,3.16-10,7.06,4.49,7.07,10,7.07a12.5,12.5,0,0,0,6.77-1.87c-2.49,3.76-6.43,6.21-11.16,5.54-11.67-1.84-21.2-12.83-27.33-22.61-6.82-11.22-11.68-26.62-5.91-39a276.62,276.62,0,0,0,35.79,15.37c17.45,5.77,37.7,10.92,56,5.81,11.65-3.24,19.88-14,12.77-25.94-12.28-18.93-42.1-19-62-18.52-16.66.66-33.56,5.47-41.94,16.88-15.66-7.75-30.69-16.63-44.46-25.23-17.75-11.48-35.49-23.14-53.55-34.23,54.28-25.92,110.56-58.17,155.82-82.18,29.34-15.32,59.33-29.77,91.17-38.38,30.4-8.35,67.19-9.74,91,14.59a50.9,50.9,0,0,1,12.76,51.47l-1.4,3.71a14.61,14.61,0,0,1-.82,1.8l-.89,1.76c-.31.58-.54,1.2-.9,1.75L636,204.25a25.77,25.77,0,0,1-2.22,3.24c-.82,1-1.61,2.08-2.46,3l-2.69,2.72a17.7,17.7,0,0,1-3,2.33c-12.23,8.2-27,10.92-41.58,11-15.72,0-40.7-4.32-51.23-17.19a16.32,16.32,0,0,1-3.08-7.23h-1.1c-.91,6.13,2.73,12.14,7,16.12,8.77,8,20.18,11.59,31.45,13.51,21.68,3.38,48.09,1.26,65.73-13.54l3.2-3.24a63.87,63.87,0,0,0,6.55-9.12,66.84,66.84,0,0,0,2.93-6.09l1.55-4.24c.54-2.18,1.28-4.36,1.6-6.59C654.61,156.34,632.14,129.11,602.71,120.43ZM430.35,295.13a178.2,178.2,0,0,1,27,2c8.47,1.31,17.35,4.11,24,9.41,6,4.5,10.31,13,3.17,18.46-6.77,5-15.76,5.35-24.12,5.06-23.23-1.84-47-10.29-69.54-21.21C400.39,297.44,416.5,295.49,430.35,295.13Z"/><path d="M5.55,189c.33,2.23,1.06,4.41,1.6,6.59l1.55,4.24A66.84,66.84,0,0,0,11.63,206a63.87,63.87,0,0,0,6.55,9.12l3.2,3.24c17.64,14.8,44.06,16.92,65.73,13.54,11.27-1.92,22.68-5.5,31.45-13.51,4.27-4,7.92-10,7-16.12h-1.09a16.33,16.33,0,0,1-3.09,7.23c-10.53,12.87-35.5,17.16-51.23,17.19-14.54-.13-29.35-2.85-41.57-11a17.38,17.38,0,0,1-3-2.33l-2.69-2.72c-.85-1-1.63-2-2.46-3a25.77,25.77,0,0,1-2.22-3.24l-1.06-1.66c-.35-.55-.59-1.17-.9-1.75l-.88-1.76a12.14,12.14,0,0,1-.82-1.8l-1.4-3.71A50.92,50.92,0,0,1,25.94,142.1C49.8,117.77,86.59,119.16,117,127.51c31.85,8.61,61.84,23.06,91.17,38.38,45.26,24,101.54,56.26,155.82,82.18-18.06,11.09-35.79,22.75-53.55,34.23-13.77,8.6-28.79,17.48-44.46,25.23-8.38-11.41-25.27-16.22-41.94-16.88-19.87-.46-49.69-.41-62,18.52-7.11,11.92,1.13,22.7,12.77,25.94,18.25,5.11,38.5,0,55.95-5.81a276.62,276.62,0,0,0,35.79-15.37c5.77,12.36.92,27.76-5.91,39-6.12,9.78-15.66,20.77-27.32,22.61-4.74.67-8.68-1.78-11.17-5.54a12.52,12.52,0,0,0,6.77,1.87c5.53,0,10-3.16,10-7.07s-4.48-7.06-10-7.06-10,3.16-10,7.06a5.22,5.22,0,0,0,.63,2.45c6,15,20.78,9.73,30.35.94a67.2,67.2,0,0,0,19.88-31.69c2.52-9.66,1.92-17.49-.84-23.78,26-13.51,50.44-30.18,75.29-45.84q13-8,26.22-15.72c26.81,12.58,53,23.47,77,30.88,31.72,10.33,64.52,18.28,97.89,19.56,143.45,5.57,124.77-133.3,29.55-128.14a104.37,104.37,0,0,0-14.82,2c-2.6.61-5.82,1.26-8.27,2.07-8.12,2.42-16.21,5.3-23.59,9.59a58.8,58.8,0,0,0-13.42,10.6l.56,1C526,196,535.7,190.81,546,187.1a112.3,112.3,0,0,1,23.31-5.79c89.33-11,112.25,115.29-19.75,113.59C521,294.54,492.51,288.78,465,281c-30.44-8.72-60.08-20.11-89.05-33.1,18.52-10.8,37.27-21.18,56.43-30.69,5.44-2.67,11.06-5.28,16.71-7.7a401.68,401.68,0,0,0,40.83,5.3l.14-1.12q-16.51-3.45-32.86-7.49l.23-.1c8.46-3.17,17.12-6.26,26.12-6.91,2.78,0,5.95-.12,8.23,1.59l.89-.65c-7-6.56-27.24-1.22-42.64,4.25-14-3.64-27.92-7.69-41.62-12.29C376,181,342.47,167.23,316.73,143.69,288.73,118,284,82.51,304,49.88,318.4,26.14,343.31,8.41,370.8,6.83c39-2.43,85.29,27.07,84.55,70.8-.13,12.1-2.4,24.7-9.15,34.82a37.87,37.87,0,0,1-20.73,15.35c-13.43,4-28.09.42-39-8.24-7.59-5.86-15.58-13-15.74-23,.25-7.88,5.59-14,11.65-18.64a7.1,7.1,0,0,0,.88,7.15c2.44,3,7.07,3.1,10.35.26s4-7.56,1.54-10.55a6.79,6.79,0,0,0-7.91-1.75c-8.38,2.26-16.6,7.38-20.71,15.6-7.05,14.67,4.71,29.33,16.95,35.84a47.28,47.28,0,0,0,21,6.33c14.31.85,29.1-2.82,39.92-12.78,19.88-17.86,22.44-50.46,9.83-73.49C434.11,8.4,386.93-9.18,348.9,4.79c-40.57,14.83-72.93,62.12-61.28,107,15.84,59.39,98.18,85.15,153,96.15-2.46,1-4.59,1.87-6.2,2.57-22.59,9.75-44.16,21.62-65.25,34.39q-21.09-9.67-41.72-20.3c-41.18-21.33-135.59-74.87-177.69-91-31-11.87-65.24-22.54-98.25-13.18C22.1,129.11-.37,156.34,5.55,189ZM263.33,308.82C240.8,319.74,217,328.19,193.79,330c-8.36.29-17.35-.08-24.12-5.06-7.14-5.48-2.82-14,3.17-18.46,6.7-5.3,15.59-8.1,24-9.41a178.2,178.2,0,0,1,27-2C237.74,295.49,253.86,297.44,263.33,308.82Z"/><path d="M30.13,234.83a33.75,33.75,0,0,1-11.81-2,28.62,28.62,0,0,1-9.65-5.88,27.1,27.1,0,0,1-6.4-9.11,30.29,30.29,0,0,1,0-23,27.2,27.2,0,0,1,6.4-9.11,28.62,28.62,0,0,1,9.65-5.88,34,34,0,0,1,11.81-2A33.59,33.59,0,0,1,44,180.55a26.75,26.75,0,0,1,10.33,8.18l2.26,3-15.91,14.2-2.64-3.32a12.42,12.42,0,0,0-3.45-3.07,7.19,7.19,0,0,0-3.67-.91,8.16,8.16,0,0,0-3,.52,5.43,5.43,0,0,0-2,1.36,6.87,6.87,0,0,0-1.42,2.37,11.25,11.25,0,0,0,0,6.95,7,7,0,0,0,1.42,2.37,5.35,5.35,0,0,0,2,1.36,8,8,0,0,0,3,.52,7.16,7.16,0,0,0,3.67-.91,12.11,12.11,0,0,0,3.45-3.07l2.64-3.32L56.62,221l-2.29,3A27.42,27.42,0,0,1,44,232,33.21,33.21,0,0,1,30.13,234.83Z"/><path d="M30.13,230.83a29.61,29.61,0,0,1-10.42-1.78A24.52,24.52,0,0,1,11.4,224a23,23,0,0,1-5.46-7.77,26.31,26.31,0,0,1,0-19.83,23.18,23.18,0,0,1,5.46-7.77,24.52,24.52,0,0,1,8.31-5.06,29.84,29.84,0,0,1,10.42-1.78,29.34,29.34,0,0,1,12.23,2.42,22.72,22.72,0,0,1,8.81,7l-10,8.92A16,16,0,0,0,36.59,196a11.16,11.16,0,0,0-5.66-1.44,11.93,11.93,0,0,0-4.49.81A9.35,9.35,0,0,0,23,197.73a11,11,0,0,0-2.24,3.72,15.13,15.13,0,0,0,0,9.71A10.91,10.91,0,0,0,23,214.88a9.5,9.5,0,0,0,3.45,2.35,12.13,12.13,0,0,0,4.49.8,11.16,11.16,0,0,0,5.66-1.44,16.07,16.07,0,0,0,4.59-4.05l10,8.91a23.31,23.31,0,0,1-8.81,6.93A29,29,0,0,1,30.13,230.83Z"/><polygon points="89.49 233.76 86.35 225.58 74.01 225.58 70.87 233.76 45.92 233.76 69.92 178.86 90.7 178.86 114.7 233.76 89.49 233.76"/><path d="M52,229.76l20.5-46.9H88.08l20.51,46.9H92.24L77.1,190.36h6.16l-15.14,39.4Zm12.19-8.18,4-11.39H89.83l4,11.39Z"/><polygon points="142.04 233.76 132.75 221.49 132.75 233.76 109.21 233.76 109.21 178.86 132.75 178.86 132.75 189.48 142.39 178.86 170.42 178.86 147.8 203.77 170.33 233.76 142.04 233.76"/><path d="M113.21,229.76v-46.9h15.54v46.9Zm14.14-10-.87-17.36,17.68-19.49h17.22L141.55,204.7l-8.78,9Zm16.68,10-13.8-18.23,10.25-10.85,21.84,29.08Z"/><polygon points="162.54 233.76 162.54 178.86 208.66 178.86 208.66 198.78 205.92 198.78 205.92 213.83 209.53 213.83 209.53 233.76 162.54 233.76"/><path d="M182.08,217.83h23.46v11.93h-39v-46.9h38.12v11.92H182.08ZM181,200.28h20.91v11.39H181Z"/><polygon points="231.88 233.76 231.88 178.86 278.01 178.86 278.01 198.78 275.26 198.78 275.26 213.83 278.88 213.83 278.88 233.76 231.88 233.76"/><path d="M251.43,217.83h23.45v11.93h-39v-46.9H274v11.92H251.43Zm-1.07-17.55h20.9v11.39h-20.9Z"/><polygon points="279.05 233.76 279.05 178.86 302.86 178.86 302.86 213.5 324.04 213.5 324.04 233.76 279.05 233.76"/><path d="M283.05,229.76v-46.9h15.81V217.5H320v12.26Z"/><rect x="322.47" y="178.86" width="23.81" height="54.9"/><path d="M326.47,229.76v-46.9h15.81v46.9Z"/><polygon points="346.32 233.76 346.32 218.56 363.02 199.12 346.99 199.12 346.99 178.86 396.33 178.86 396.33 194.05 379.63 213.5 397.4 213.5 397.4 233.76 346.32 233.76"/><path d="M350.32,229.76V220l26.13-30.42,1.94,5.5H351V182.86h41.34v9.71L366.2,223l-1.95-5.49H393.4v12.26Z"/><polygon points="432.46 233.76 429.32 225.58 416.98 225.58 413.83 233.76 388.89 233.76 412.89 178.86 433.67 178.86 457.67 233.76 432.46 233.76"/><path d="M395,229.76l20.5-46.9h15.54l20.51,46.9H435.21l-15.14-39.4h6.16l-15.14,39.4Zm12.19-8.18,4-11.39h21.57l4,11.39Z"/><path d="M452.18,233.76v-54.9h29.06c7.43,0,12.9,1.38,16.73,4.24a14.86,14.86,0,0,1,3.51,20.67c-.22.3-.45.6-.69.89a16.52,16.52,0,0,1,2.65,2.77,15.34,15.34,0,0,1,3,9.4,14.88,14.88,0,0,1-6.82,12.82c-4.09,2.76-9.65,4.11-17,4.11Z"/><path d="M456.18,229.76v-46.9h25.06q9.7,0,14.33,3.45a10.85,10.85,0,0,1,2.65,15.14,13.21,13.21,0,0,1-5.73,4.39,23.5,23.5,0,0,1-9.24,1.61l1.34-3.62a26.24,26.24,0,0,1,9.48,1.54,13.61,13.61,0,0,1,6.16,4.45,11.41,11.41,0,0,1,2.18,7,10.86,10.86,0,0,1-5.06,9.51q-5.06,3.42-14.77,3.42Zm15.54-11.06h9.52a6.69,6.69,0,0,0,3.92-.94,3.55,3.55,0,0,0,0-5.49,6.69,6.69,0,0,0-3.92-.94H470.65V200.88h8.44A6.67,6.67,0,0,0,483,200a3.34,3.34,0,0,0,0-5.19,6.93,6.93,0,0,0-3.92-.87h-7.37Z"/><polygon points="506.05 233.76 506.05 178.86 552.17 178.86 552.17 198.78 549.42 198.78 549.42 213.83 553.04 213.83 553.04 233.76 506.05 233.76"/><path d="M525.59,217.83H549v11.93h-39v-46.9h38.12v11.92H525.59Zm-1.07-17.55h20.9v11.39h-20.9Z"/><polygon points="563.4 233.76 563.4 199.12 549.66 199.12 549.66 178.86 600.94 178.86 600.94 199.12 587.21 199.12 587.21 233.76 563.4 233.76"/><path d="M567.4,229.76V195.12H553.66V182.86h43.28v12.26H583.21v34.64Z"/><polygon points="629.53 233.76 629.53 216.47 622.92 216.47 622.92 233.76 599.11 233.76 599.11 178.86 622.92 178.86 622.92 195.47 629.53 195.47 629.53 178.86 653.34 178.86 653.34 233.76 629.53 233.76"/><path d="M618.92,229.76H603.11v-46.9h15.81Zm15.68-17.29H617.85v-13H634.6Zm-1.07-29.61h15.81v46.9H633.53Z"/><path class="cls-1" d="M29.59,231.1a29.84,29.84,0,0,1-10.42-1.77,24.52,24.52,0,0,1-8.31-5.06A23.18,23.18,0,0,1,5.4,216.5a26.31,26.31,0,0,1,0-19.83,23.12,23.12,0,0,1,5.46-7.78,24.65,24.65,0,0,1,8.31-5,29.61,29.61,0,0,1,10.42-1.78,29.34,29.34,0,0,1,12.23,2.41,22.75,22.75,0,0,1,8.81,7l-10,8.91a16.07,16.07,0,0,0-4.59-4,11.16,11.16,0,0,0-5.66-1.44,12.13,12.13,0,0,0-4.49.8A9.5,9.5,0,0,0,22.45,198a10.86,10.86,0,0,0-2.24,3.71,15.16,15.16,0,0,0,0,9.72,11,11,0,0,0,2.24,3.72,9.35,9.35,0,0,0,3.45,2.34,11.93,11.93,0,0,0,4.49.81,11.16,11.16,0,0,0,5.66-1.44,16,16,0,0,0,4.59-4.06l10,8.91a23.24,23.24,0,0,1-8.81,6.94A29,29,0,0,1,29.59,231.1Z"/><path class="cls-1" d="M51.5,230,72,183.13H87.54L108.05,230H91.7L76.56,190.64h6.16L67.58,230Zm12.19-8.17,4-11.39H89.29l4,11.39Z"/><path class="cls-1" d="M112.67,230v-46.9h15.54V230ZM126.81,220l-.87-17.35,17.68-19.5h17.22L141,205l-8.78,9ZM143.49,230l-13.8-18.22L139.94,201,161.78,230Z"/><path class="cls-1" d="M181.54,218.11H205V230H166v-46.9h38.12v11.93H181.54Zm-1.07-17.56h20.91v11.39H180.47Z"/><path class="cls-1" d="M250.89,218.11h23.45V230h-39v-46.9h38.13v11.93H250.89Zm-1.07-17.56h20.9v11.39h-20.9Z"/><path class="cls-1" d="M282.51,230v-46.9h15.81v34.64H319.5V230Z"/><path class="cls-1" d="M325.93,230v-46.9h15.81V230Z"/><path class="cls-1" d="M349.78,230v-9.71l26.13-30.42,1.94,5.49h-27.4V183.13h41.34v9.72l-26.13,30.42-2-5.5h29.15V230Z"/><path class="cls-1" d="M394.47,230l20.5-46.9h15.54L451,230H434.67l-15.14-39.39h6.16L410.55,230Zm12.19-8.17,4-11.39h21.57l4,11.39Z"/><path class="cls-1" d="M455.64,230v-46.9H480.7q9.71,0,14.33,3.45a10.85,10.85,0,0,1,2.65,15.14,13.14,13.14,0,0,1-5.73,4.39,23.32,23.32,0,0,1-9.24,1.61l1.34-3.62a26.46,26.46,0,0,1,9.48,1.54,13.63,13.63,0,0,1,6.16,4.46,11.38,11.38,0,0,1,2.18,7,10.87,10.87,0,0,1-5.06,9.52Q491.76,230,482,230ZM471.18,219h9.52a6.69,6.69,0,0,0,3.92-.94,3.55,3.55,0,0,0,0-5.49,6.69,6.69,0,0,0-3.92-.94H470.11V201.16h8.44a6.74,6.74,0,0,0,3.92-.91,3.34,3.34,0,0,0,0-5.19,6.93,6.93,0,0,0-3.92-.87h-7.37Z"/><path class="cls-1" d="M525.05,218.11H548.5V230h-39v-46.9h38.12v11.93H525.05ZM524,200.55h20.9v11.39H524Z"/><path class="cls-1" d="M566.86,230V195.39H553.12V183.13H596.4v12.26H582.67V230Z"/><path class="cls-1" d="M618.38,230H602.57v-46.9h15.81Zm15.68-17.28H617.31v-13h16.75ZM633,183.13H648.8V230H633Z"/></g></g></svg>